<?xml version="1.0" encoding="UTF-8"?>
<svg xmlns="http://www.w3.org/2000/svg" xmlns:xlink="http://www.w3.org/1999/xlink" width="48px" height="48px" viewBox="0 0 48 48" version="1.1">
<path d="M37.17 5.73q0-1.61-4.05-3.45q-4.05-1.83-9.14-1.83q-5.08 0-9.12 1.83q-4.05 1.84-4.05 3.45l0 5.55q0 1.69 1.41 3.56q1.42 1.89 3.16 3.3q1.75 1.42 3.16 3.02q1.41 1.61 1.41 2.83q0 1.12-1.41 2.77q-1.41 1.66-3.16 3.06q-1.73 1.42-3.16 3.34q-1.41 1.94-1.41 3.62l0 5.47q0 1.59 4.05 3.42q4.05 1.84 9.12 1.84q5.09 0 9.14-1.84q4.05-1.83 4.05-3.42l0-5.47q0-1.69-1.42-3.62q-1.41-1.92-3.16-3.34q-1.73-1.41-3.16-3.06q-1.41-1.64-1.41-2.77q0-1.22 1.41-2.83q1.42-1.59 3.16-3.02q1.75-1.41 3.16-3.3q1.42-1.88 1.42-3.56l0-5.55ZM14.48 5.92q3.95-2.55 9.69-2.55q5 0 9.42 2.55q1.5 1.03 0.75 1.5q-4.14 2.36-10.36 2.36q-6.02 0-10.16-2.55q-0.38-0.19-0.19-0.56q0.84-0.75 0.84-0.75ZM25.41 25.53q0.19 0.72 0.84 1.56q0.66 0.84 0.94 1.17q0.28 0.33 1.45 1.45q1.19 1.14 1.38 1.33q4.33 4.14 4.33 5.73l0 3.11q-0.38-0.19-3.16-1.08q-2.78-0.89-4.38-2.08q-1.59-1.17-1.59-2.77q0-0.86-0.62-1.19q-0.61-0.33-1.17 0q-0.56 0.33-0.56 1.19q0 1.59-1.61 2.77q-1.59 1.19-4.38 2.08q-2.77 0.89-3.14 1.08l0-3.11q0-1.69 4.23-5.73q0.28-0.28 1.22-1.19q0.94-0.89 1.22-1.17q0.28-0.28 0.94-1.03q0.67-0.75 0.86-1.17q0.19-0.42 0.42-1.14q0.23-0.7 0.23-1.36q0-0.56-0.14-1.12q-0.14-0.56-0.42-1.09q-0.28-0.52-0.52-0.94q-0.23-0.42-0.81-0.98q-0.56-0.56-0.89-0.89q-0.33-0.33-1.08-1.05q-0.75-0.7-1.03-0.98q-4.23-4.05-4.23-5.64l-0.09-2.36q4.7 2.45 10.34 2.45q5.56 0 10.45-2.45l-0.09 2.36q0 1.5-4.33 5.64q-0.19 0.19-1.38 1.31q-1.17 1.14-1.45 1.47q-0.28 0.33-0.94 1.17q-0.66 0.86-0.84 1.56q-0.19 0.7-0.19 1.55q0 0.84 0.19 1.55Z" fill="rgb(255,255,255)"/>
</svg>