<?xml version="1.0" encoding="UTF-8"?>
<svg xmlns="http://www.w3.org/2000/svg" xmlns:xlink="http://www.w3.org/1999/xlink" width="48px" height="48px" viewBox="0 0 48 48" version="1.1">
<path d="M26.08 24.05c3.88-1.83 13.52-7.12 15.88-16.02c0.2-0.75-0.25-1.47-0.98-1.67c-0.75-0.19-1.47 0.22-1.67 0.97c-2.16 8.08-11.78 13-14.83 14.42c-1.98-2.7-7.86-11.78-5.7-19.89c0.2-0.75-0.25-1.47-1.02-1.67c-0.7-0.19-1.45 0.22-1.66 0.97c-2.36 8.89 3.34 18.27 5.8 21.78c-3.86 1.8-13.48 7.12-15.86 16.02c-0.19 0.75 0.25 1.5 0.95 1.69c0.77 0.2 1.53-0.23 1.72-0.98c2.16-8.09 11.78-13.05 14.84-14.44c1.95 2.7 7.84 11.8 5.69 19.91c-0.19 0.75 0.23 1.5 0.97 1.69c0.73 0.2 1.5-0.23 1.69-0.98c2.38-8.89-3.34-18.3-5.81-21.78l0 0l0 0Z" fill="rgb(255,255,255)"/>
<path d="M21.72 3.98l13.89 3.7c0.78 0.2 1.58-0.25 1.78-0.98c0.2-0.78-0.25-1.58-1.03-1.78l-13.89-3.7c-0.75-0.2-1.55 0.27-1.75 1.05c-0.2 0.73 0.25 1.52 1 1.72l0 0l0 0Z" fill="rgb(255,255,255)"/>
<path d="M34.09 12.06c0.2-0.77-0.25-1.56-1-1.75l-10.45-2.78c-0.78-0.2-1.53 0.25-1.73 1.02c-0.2 0.75 0.22 1.53 1 1.73l10.45 2.78c0.78 0.2 1.53-0.25 1.73-1l0 0l0 0Z" fill="rgb(255,255,255)"/>
<path d="M24.52 13.55c-0.77-0.2-1.52 0.27-1.72 1c-0.2 0.78 0.22 1.56 0.98 1.77l3.94 1.05c0.75 0.2 1.53-0.25 1.73-1.03c0.2-0.73-0.25-1.53-1-1.73l-3.94-1.05l0 0l0 0Z" fill="rgb(255,255,255)"/>
<path d="M26.12 43.38l-13.89-3.7c-0.75-0.2-1.55 0.27-1.73 1.02c-0.22 0.77 0.25 1.55 1 1.75l13.89 3.7c0.78 0.2 1.56-0.25 1.78-1.02c0.19-0.75-0.27-1.55-1.05-1.75l0 0l0 0Z" fill="rgb(255,255,255)"/>
<path d="M13.78 35.3c-0.2 0.78 0.22 1.58 1 1.78l10.45 2.78c0.75 0.19 1.53-0.27 1.73-1.05c0.2-0.75-0.25-1.55-1-1.73l-10.45-2.78c-0.78-0.2-1.53 0.25-1.73 1l0 0l0 0Z" fill="rgb(255,255,255)"/>
<path d="M23.34 33.83c0.75 0.2 1.53-0.25 1.73-1.03c0.2-0.75-0.25-1.53-1-1.73l-3.94-1.05c-0.77-0.2-1.52 0.25-1.72 1c-0.2 0.78 0.22 1.56 0.98 1.77l3.94 1.05l0 0l0 0Z" fill="rgb(255,255,255)"/>
</svg>